<?xml version="1.0" encoding="utf-8"?>
<!-- Generator: Adobe Illustrator 19.1.0, SVG Export Plug-In . SVG Version: 6.00 Build 0)  -->
<!DOCTYPE svg PUBLIC "-//W3C//DTD SVG 1.1//EN" "http://www.w3.org/Graphics/SVG/1.1/DTD/svg11.dtd">
<svg version="1.1" id="Layer_1" xmlns="http://www.w3.org/2000/svg" xmlns:xlink="http://www.w3.org/1999/xlink" x="0px" y="0px"
	 viewBox="0 0 192 30" style="enable-background:new 0 0 192 30;" xml:space="preserve">
<style type="text/css">
	.st0{fill:#FFFFFF;}
</style>
<g>
	<g>
		<g>
			<defs>
				<path id="SVGID_1_" d="M27.7,12.4L27.7,12.4c0-0.7-0.6-1.3-1.3-1.3h-25C0.6,11,0,11.6,0,12.4v0c0,0.7,0.6,1.3,1.3,1.3h25
					C27.1,13.7,27.7,13.1,27.7,12.4z"/>
			</defs>
			<use xlink:href="#SVGID_1_"  style="overflow:visible;fill:#DD4444;"/>
			<clipPath id="SVGID_2_">
				<use xlink:href="#SVGID_1_"  style="overflow:visible;"/>
			</clipPath>
		</g>
		<g>
			<defs>
				<path id="SVGID_3_" d="M30.5,7.7L30.5,7.7c0-0.7-0.6-1.3-1.3-1.3H13.8c-0.7,0-1.3,0.6-1.3,1.3v0c0,0.7,0.6,1.3,1.3,1.3h15.4
					C29.9,9,30.5,8.4,30.5,7.7z"/>
			</defs>
			<use xlink:href="#SVGID_3_"  style="overflow:visible;fill:#DD4444;"/>
			<clipPath id="SVGID_4_">
				<use xlink:href="#SVGID_3_"  style="overflow:visible;"/>
			</clipPath>
		</g>
		<g>
			<defs>
				<path id="SVGID_5_" d="M25.3,22L25.3,22c0-0.7-0.6-1.3-1.3-1.3h-6.2c-0.7,0-1.3,0.6-1.3,1.3v0c0,0.7,0.6,1.3,1.3,1.3h6.2
					C24.7,23.3,25.3,22.7,25.3,22z"/>
			</defs>
			<use xlink:href="#SVGID_5_"  style="overflow:visible;fill:#DD4444;"/>
			<clipPath id="SVGID_6_">
				<use xlink:href="#SVGID_5_"  style="overflow:visible;"/>
			</clipPath>
		</g>
		<g>
			<defs>
				<path id="SVGID_7_" d="M23.4,17.1L23.4,17.1c0-0.7-0.6-1.3-1.3-1.3H6.8c-0.7,0-1.3,0.6-1.3,1.3v0c0,0.7,0.6,1.3,1.3,1.3h15.2
					C22.8,18.4,23.4,17.8,23.4,17.1z"/>
			</defs>
			<use xlink:href="#SVGID_7_"  style="overflow:visible;fill:#DD4444;"/>
			<clipPath id="SVGID_8_">
				<use xlink:href="#SVGID_7_"  style="overflow:visible;"/>
			</clipPath>
		</g>
	</g>
	<g>
		<path class="st0" d="M31.5,25.9c-0.6,0-0.8-0.3-0.7-0.8l3.6-20.5c0.1-0.5,0.4-0.8,0.9-0.8h7.7c5.1,0,7.7,1.6,7.7,4.8
			c0,1.3-0.3,2.4-1,3.5c-0.7,1-1.6,1.7-2.9,2.2c0.9,0.2,1.6,0.7,2.1,1.4c0.5,0.7,0.8,1.6,0.8,2.8c0,2.6-0.9,4.5-2.7,5.7
			c-1.8,1.2-4.2,1.8-7.2,1.8H31.5z M40,22.3c3.6,0,5.4-1.3,5.4-3.9c0-0.8-0.3-1.4-1-1.8c-0.6-0.4-1.7-0.5-3.2-0.5h-4.5l-1.1,6.2H40z
			 M41.7,12.9c3.1,0,4.7-1.2,4.7-3.5c0-0.7-0.3-1.3-0.9-1.6S44,7.3,42.6,7.3h-4.3l-1,5.6H41.7z"/>
		<path class="st0" d="M55.6,25.1c-0.1,0.5-0.3,0.7-0.8,0.7h-2.7c-0.5,0-0.7-0.2-0.6-0.7l3.6-20.7c0.1-0.5,0.4-0.7,0.8-0.7h2.7
			c0.5,0,0.7,0.2,0.6,0.7L55.6,25.1z"/>
		<path class="st0" d="M73,25.1c-0.1,0.5-0.4,0.7-0.8,0.7h-2.3c-0.4,0-0.7-0.2-0.7-0.6l0.2-1.7c-1.4,1.7-3.3,2.6-5.8,2.6
			c-1.6,0-2.8-0.4-3.7-1.1c-0.9-0.8-1.3-1.7-1.3-3c0-0.9,0.2-1.8,0.5-2.5c0.3-0.7,0.8-1.3,1.4-1.7c0.6-0.4,1.3-0.8,2-1
			c0.7-0.3,1.5-0.5,2.5-0.6c1-0.1,1.8-0.2,2.6-0.3c0.8-0.1,1.7-0.1,2.6-0.1h0.3l0.1-0.7c0.2-1,0-1.7-0.5-2.1
			c-0.5-0.5-1.4-0.7-2.7-0.7c-1.6,0-3.2,0.3-4.9,0.9c-0.5,0.2-0.8,0-0.8-0.4L61.8,11c-0.1-0.4,0.1-0.7,0.6-0.9
			c2-0.8,4.1-1.2,6.2-1.2c4.3,0,6.4,1.6,6.4,4.7c0,0.5,0,1-0.1,1.5L73,25.1z M70.2,18.3l-1.8,0.1c-0.4,0-1,0.1-1.7,0.2
			s-1.3,0.2-1.6,0.3c-0.4,0.1-0.8,0.3-1.2,0.5c-0.4,0.2-0.7,0.5-0.9,0.9c-0.2,0.4-0.3,0.8-0.3,1.2c0,0.5,0.2,1,0.6,1.3
			c0.4,0.3,1,0.5,1.8,0.5c1.4,0,2.5-0.3,3.3-1c0.8-0.7,1.4-1.6,1.6-2.7L70.2,18.3z"/>
		<path class="st0" d="M91.2,11.6c0,0.4-0.2,0.7-0.6,1l-9.5,9.9h7.5c0.5,0,0.7,0.2,0.6,0.7l-0.4,2c-0.1,0.5-0.3,0.7-0.8,0.7H76.3
			c-0.5,0-0.7-0.2-0.7-0.7l0.3-1.5c0.1-0.4,0.2-0.7,0.5-0.9l9.7-10h-7.2c-0.5,0-0.7-0.2-0.6-0.7l0.4-2c0.1-0.5,0.3-0.7,0.8-0.7h11.6
			c0.5,0,0.7,0.2,0.6,0.7L91.2,11.6z"/>
		<path class="st0" d="M104.4,22.2c0.5-0.2,0.8-0.1,0.9,0.4l0.3,1.5c0,0.3-0.2,0.6-0.6,0.9c-1.7,0.8-3.5,1.2-5.4,1.2
			c-2.4,0-4.4-0.6-5.7-1.8c-1.4-1.2-2.1-2.9-2.1-5c0-0.6,0.1-1.3,0.2-2c0.5-2.7,1.5-4.8,3.1-6.3c1.6-1.5,3.7-2.2,6.1-2.2
			c2.1,0,3.7,0.6,4.9,1.7c1.1,1.1,1.7,2.6,1.7,4.5c0,0.6-0.1,1.2-0.2,1.7l-0.3,1.5c-0.1,0.5-0.4,0.8-0.9,0.8H95.8c0,0.1,0,0.3,0,0.5
			c0,1.1,0.4,2,1.2,2.6c0.8,0.6,1.8,1,3.2,1C101.6,23.2,103,22.8,104.4,22.2z M96.1,16.5h7.8l0-0.2c0.1-0.4,0.1-0.8,0.1-1.2
			c0-1-0.3-1.7-0.8-2.3c-0.5-0.5-1.3-0.8-2.3-0.8C98.4,12,96.8,13.5,96.1,16.5z"/>
		<path class="st0" d="M119.7,20.1l-4-9.1l-2.4,14c-0.1,0.5-0.4,0.8-0.9,0.8h-2.7c-0.6,0-0.8-0.3-0.7-0.8l3.6-20.5
			c0.1-0.5,0.4-0.8,0.9-0.8h2.6c0.5,0,0.8,0.1,0.9,0.4l4.4,10.1l7.9-10.1c0.2-0.3,0.5-0.4,0.9-0.4h2.8c0.5,0,0.7,0.3,0.7,0.8
			L130,25.1c-0.1,0.5-0.4,0.8-0.9,0.8h-2.8c-0.5,0-0.8-0.3-0.6-0.8l2.4-14l-7.2,9.1c-0.2,0.3-0.4,0.4-0.8,0.4
			C120,20.5,119.8,20.4,119.7,20.1z"/>
		<path class="st0" d="M146.7,22.2c0.5-0.2,0.8-0.1,0.9,0.4l0.3,1.5c0,0.3-0.2,0.6-0.6,0.9c-1.7,0.8-3.5,1.2-5.4,1.2
			c-2.4,0-4.4-0.6-5.7-1.8c-1.4-1.2-2.1-2.9-2.1-5c0-0.6,0.1-1.3,0.2-2c0.5-2.7,1.5-4.8,3.1-6.3c1.6-1.5,3.7-2.2,6.1-2.2
			c2.1,0,3.7,0.6,4.9,1.7c1.1,1.1,1.7,2.6,1.7,4.5c0,0.6-0.1,1.2-0.2,1.7l-0.3,1.5c-0.1,0.5-0.4,0.8-0.9,0.8h-10.7
			c0,0.1,0,0.3,0,0.5c0,1.1,0.4,2,1.2,2.6c0.8,0.6,1.8,1,3.2,1C143.9,23.2,145.3,22.8,146.7,22.2z M138.5,16.5h7.8l0-0.2
			c0.1-0.4,0.1-0.8,0.1-1.2c0-1-0.3-1.7-0.8-2.3c-0.5-0.5-1.3-0.8-2.3-0.8C140.8,12,139.2,13.5,138.5,16.5z"/>
		<path class="st0" d="M158.1,12.8l-1.3,7.6c-0.1,0.4-0.1,0.7-0.1,1c0,0.5,0.1,0.9,0.4,1.1c0.3,0.2,0.8,0.3,1.4,0.3
			c0.2,0,0.5,0,0.8-0.1c0.3-0.1,0.5-0.1,0.6-0.1c0.2,0,0.4,0,0.5,0.1c0.1,0.1,0.1,0.3,0.1,0.5l-0.1,1.8c0,0.3-0.3,0.6-0.7,0.7
			c-0.7,0.2-1.5,0.3-2.4,0.3c-1.6,0-2.7-0.3-3.5-0.9c-0.8-0.6-1.1-1.5-1.1-2.8c0-0.6,0.1-1.2,0.2-1.7l1.4-7.9h-1.7
			c-0.5,0-0.7-0.2-0.6-0.7l0.3-1.8c0.1-0.5,0.4-0.7,0.8-0.7h1.8l0.7-3.9c0.1-0.4,0.4-0.7,0.8-0.7h2.5c0.5,0,0.7,0.2,0.6,0.7
			l-0.7,3.9h3.4c0.5,0,0.7,0.2,0.6,0.7l-0.3,1.8c-0.1,0.5-0.4,0.7-0.8,0.7H158.1z"/>
		<path class="st0" d="M175.1,22.2c0.5-0.2,0.8-0.1,0.9,0.4l0.3,1.5c0,0.3-0.2,0.6-0.6,0.9c-1.7,0.8-3.5,1.2-5.4,1.2
			c-2.4,0-4.4-0.6-5.7-1.8c-1.4-1.2-2.1-2.9-2.1-5c0-0.6,0.1-1.3,0.2-2c0.5-2.7,1.5-4.8,3.1-6.3c1.6-1.5,3.7-2.2,6.1-2.2
			c2.1,0,3.7,0.6,4.9,1.7c1.1,1.1,1.7,2.6,1.7,4.5c0,0.6-0.1,1.2-0.2,1.7l-0.3,1.5c-0.1,0.5-0.4,0.8-0.9,0.8h-10.7
			c0,0.1,0,0.3,0,0.5c0,1.1,0.4,2,1.2,2.6c0.8,0.6,1.8,1,3.2,1C172.3,23.2,173.7,22.8,175.1,22.2z M166.9,16.5h7.8l0-0.2
			c0.1-0.4,0.1-0.8,0.1-1.2c0-1-0.3-1.7-0.8-2.3c-0.5-0.5-1.3-0.8-2.3-0.8C169.2,12,167.6,13.5,166.9,16.5z"/>
		<path class="st0" d="M185.5,9.3c0.5,0,0.7,0.2,0.6,0.7l-0.3,2.5c0.5-0.8,1.3-1.6,2.3-2.3c1-0.7,2.1-1,3.3-1c0.4,0,0.6,0.2,0.5,0.6
			l-0.5,2.9c-0.1,0.4-0.3,0.6-0.7,0.6c-0.1,0-0.2,0-0.4,0c-0.2,0-0.4,0-0.6,0c-1.2,0-2.2,0.5-3.1,1.4c-0.9,0.9-1.5,2-1.7,3.3
			l-1.3,7.2c-0.1,0.5-0.3,0.7-0.8,0.7h-2.7c-0.5,0-0.7-0.2-0.7-0.7l2.7-15.1c0.1-0.5,0.4-0.7,0.8-0.7H185.5z"/>
	</g>
</g>
</svg>
